<svg width="14" height="14" viewBox="0 0 14 14" fill="none" xmlns="http://www.w3.org/2000/svg">
<path d="M5.14064 3.51504H8.67306C9.76707 3.51504 10.6002 1.24944 10.6002 1.24944C10.6002 0.57162 10.5287 0.0575464 9.31546 0.0219505C8.10222 -0.0136454 7.81156 0.829367 6.93964 0.829367C6.06772 0.829367 5.59822 0.162923 4.49824 0.0191064C3.39827 -0.12471 3.21346 0.568754 3.21346 1.2466C3.21346 1.2466 4.04663 3.5122 5.14064 3.5122V3.51504ZM8.86682 4.21565H5.14063C1.01353 4.21565 0 11.9608 0 11.9608C0 12.9776 0.862987 14 1.92718 14H12.0728C13.137 14 14 12.9776 14 11.9608C14 11.9608 12.9865 4.21565 8.86086 4.21565H8.86682ZM9.29012 10.168C9.40831 10.1686 9.52147 10.2138 9.60483 10.2939C9.6882 10.3739 9.735 10.4823 9.735 10.5952C9.735 10.7081 9.6882 10.8165 9.60483 10.8965C9.52147 10.9766 9.40831 11.0218 9.29012 11.0224H7.46279V12.1516C7.46309 12.2079 7.45174 12.2637 7.42941 12.3158C7.40707 12.3679 7.37418 12.4152 7.33263 12.4551C7.29108 12.495 7.24169 12.5267 7.18729 12.5483C7.13289 12.5699 7.07456 12.581 7.01565 12.581C6.95674 12.581 6.89841 12.5699 6.84401 12.5483C6.78962 12.5267 6.74022 12.495 6.69867 12.4551C6.65712 12.4152 6.62424 12.3679 6.6019 12.3158C6.57956 12.2637 6.56821 12.2079 6.56851 12.1516V11.0224H4.72331C4.60511 11.0218 4.49196 10.9766 4.4086 10.8965C4.32523 10.8165 4.27843 10.7081 4.27843 10.5952C4.27843 10.4823 4.32523 10.3739 4.4086 10.2939C4.49196 10.2138 4.60511 10.1686 4.72331 10.168H6.55808V9.6226H4.72331C4.60511 9.62203 4.49196 9.57677 4.4086 9.49671C4.32523 9.41666 4.27843 9.30833 4.27843 9.1954C4.27843 9.08247 4.32523 8.97414 4.4086 8.89408C4.49196 8.81403 4.60511 8.76877 4.72331 8.7682H5.9619L4.6935 6.59944C4.63627 6.5008 4.62197 6.38461 4.65367 6.27598C4.68538 6.16735 4.76055 6.075 4.86294 6.01888C4.96533 5.96277 5.08672 5.9474 5.20088 5.97609C5.31503 6.00479 5.41279 6.07524 5.47302 6.17223L7.00522 8.76109H7.08273L8.61642 6.16939C8.67667 6.07245 8.77442 6.00204 8.88855 5.97338C9.00268 5.94471 9.12403 5.96009 9.22639 6.01619C9.32876 6.07229 9.40392 6.1646 9.43564 6.2732C9.46736 6.38179 9.4531 6.49795 9.39594 6.59658L8.12307 8.76108H9.29012C9.40871 8.76108 9.52244 8.80609 9.6063 8.8862C9.69015 8.96632 9.73726 9.07498 9.73726 9.18828C9.73726 9.30159 9.69015 9.41025 9.6063 9.49036C9.52244 9.57048 9.40871 9.61549 9.29012 9.61549H7.46279V10.1609L9.29012 10.168Z" fill="currentColor" />
</svg>
