<svg width="15" height="17" viewBox="0 0 15 17" fill="none" xmlns="http://www.w3.org/2000/svg">
<path fill-rule="evenodd" clip-rule="evenodd" d="M7.85249 16.3429C7.46625 16.7109 6.85922 16.7109 6.47299 16.3429L0.312263 10.474C-0.341297 9.85145 0.0993649 8.75 1.00201 8.75H2.16274V1C2.16274 0.447716 2.61045 0 3.16274 0H11.1627C11.715 0 12.1627 0.447716 12.1627 1V8.75H13.3235C14.2261 8.75 14.6668 9.85145 14.0132 10.474L7.85249 16.3429ZM5.43 4.4789H4.11L6.06 7.9889H4.74V8.6089H6.41L6.42 8.6189V9.4789H4.74V10.0989H6.42V11.6189H7.58V10.0989H9.27V9.4789H7.58V8.6189L7.59 8.6089H9.27V7.9889H7.94L9.89 4.4789H8.57L7 7.5489L5.43 4.4789Z" fill="currentColor" />
</svg>
