<svg width="14" height="16" viewBox="0 0 14 16" fill="none" xmlns="http://www.w3.org/2000/svg">
<path d="M9.93419 10.988C9.52106 10.5851 8.71264 9.90949 7.94856 9.90894C7.69333 9.90894 7.45756 9.9831 7.26343 10.1243L6.77621 10.4798C6.01321 10.3162 5.23075 9.64558 4.67432 8.67339C4.1168 7.7012 3.93187 6.68321 4.17196 5.93511L4.72082 5.68648C5.42055 5.36914 5.64767 4.45747 5.36269 3.11723C5.13287 2.03871 4.35257 0 3.03801 0C2.91147 0 2.78386 0.0201745 2.66273 0.0599782L1.73318 0.363141C0.936654 0.623773 0.336962 1.29771 0.167707 2.12323C-0.330864 4.54526 0.294243 7.52508 1.88243 10.2988C3.47169 13.072 5.72013 15.1074 8.0486 15.8817C8.28545 15.9597 8.53095 16 8.77969 16C9.35829 16 9.91418 15.7852 10.343 15.3948L11.0676 14.735C11.325 14.5011 11.6997 13.9586 11.3163 12.9531C11.0849 12.3457 10.5561 11.5927 9.93419 10.988ZM13.2192 4.17884C12.3524 2.45638 10.8724 1.17775 9.05061 0.577972C9.01167 0.564886 8.97003 0.557797 8.9284 0.557797C8.75752 0.557797 8.60719 0.667939 8.5542 0.832061C8.48715 1.0398 8.60016 1.26445 8.80673 1.33261C10.4279 1.86641 11.7457 3.00491 12.5163 4.53762C13.289 6.07088 13.422 7.81516 12.8926 9.44984C12.825 9.65812 12.9386 9.88277 13.1457 9.95038C13.1841 9.96347 13.2252 9.97056 13.2674 9.97056C13.4383 9.97056 13.5897 9.86042 13.6427 9.69629C14.2369 7.86042 14.0861 5.90131 13.2192 4.17884ZM8.31248 2.85987C8.27301 2.84733 8.23191 2.84024 8.18973 2.84024C8.01886 2.84024 7.86745 2.95038 7.81553 3.1145C7.74794 3.32225 7.8615 3.54744 8.06752 3.61505C9.08305 3.94875 9.90824 4.66303 10.3927 5.62595C10.8773 6.58888 10.9627 7.68212 10.6296 8.70502C10.5625 8.9133 10.6761 9.13795 10.8827 9.20665C10.9227 9.21919 10.9638 9.22574 11.0054 9.22574C11.1763 9.22574 11.3272 9.11559 11.3796 8.95202C11.776 7.72683 11.6754 6.41821 11.0957 5.26663C10.515 4.1145 9.52647 3.26009 8.31248 2.85987ZM7.32832 5.8964C8.17946 6.17721 8.6445 7.10251 8.36656 7.9602C8.29951 8.16794 8.41306 8.39259 8.61963 8.46129C8.6591 8.47383 8.7002 8.48092 8.7413 8.48092C8.91271 8.48092 9.06358 8.37023 9.11658 8.20665C9.52971 6.93293 8.83647 5.5578 7.57328 5.14122C7.53434 5.12814 7.49271 5.12105 7.45053 5.12105C7.27965 5.12105 7.12932 5.23119 7.07579 5.39477C7.00873 5.60414 7.12175 5.82879 7.32832 5.8964Z" fill="currentColor" />
</svg>
