<svg width="14" height="13" viewBox="0 0 14 13" fill="none" xmlns="http://www.w3.org/2000/svg">
<path d="M6.5 8H7.5C7.78 8 8 7.78 8 7.5C8 7.22 7.78 7 7.5 7H6.5C6.22 7 6 7.22 6 7.5C6 7.78 6.22 8 6.5 8ZM6.5 10H7.5C7.78 10 8 9.78 8 9.5C8 9.22 7.78 9 7.5 9H6.5C6.22 9 6 9.22 6 9.5C6 9.78 6.22 10 6.5 10ZM12 1H10V0.5C10 0.22 9.78 0 9.5 0C9.22 0 9 0.22 9 0.5V1H5V0.5C5 0.22 4.78 0 4.5 0C4.22 0 4 0.22 4 0.5V1H2C0.9 1 0 1.9 0 3V11C0 12.1 0.9 13 2 13H12C13.1 13 14 12.1 14 11V3C14 1.9 13.1 1 12 1ZM13 11C13 11.55 12.55 12 12 12H2C1.45 12 1 11.55 1 11V5H13V11ZM13 4H1V3C1 2.45 1.45 2 2 2H4V2.5C4 2.78 4.22 3 4.5 3C4.78 3 5 2.78 5 2.5V2H9V2.5C9 2.78 9.22 3 9.5 3C9.78 3 10 2.78 10 2.5V2H12C12.55 2 13 2.45 13 3V4ZM3.5 10H4.5C4.78 10 5 9.78 5 9.5C5 9.22 4.78 9 4.5 9H3.5C3.22 9 3 9.22 3 9.5C3 9.78 3.22 10 3.5 10ZM9.5 8H10.5C10.78 8 11 7.78 11 7.5C11 7.22 10.78 7 10.5 7H9.5C9.22 7 9 7.22 9 7.5C9 7.78 9.22 8 9.5 8ZM3.5 8H4.5C4.78 8 5 7.78 5 7.5C5 7.22 4.78 7 4.5 7H3.5C3.22 7 3 7.22 3 7.5C3 7.78 3.22 8 3.5 8ZM9.5 10H10.5C10.78 10 11 9.78 11 9.5C11 9.22 10.78 9 10.5 9H9.5C9.22 9 9 9.22 9 9.5C9 9.78 9.22 10 9.5 10Z" fill="currentColor" />
</svg>
