<svg width="16" height="14" viewBox="0 0 16 14" fill="none" xmlns="http://www.w3.org/2000/svg">
<path d="M15.3056 4.1426V6.92245L15.9157 7.69163L14.7362 8.80025L13.6514 7.69163L14.3022 6.90801V4.60049C10.8172 6.13884 9.86798 6.6267 9.09545 6.99648C8.32257 7.36626 7.76673 7.36626 6.99385 7.0557C6.23418 6.74515 2.74925 5.3108 0.932519 4.37913C-0.274459 3.75801 -0.355852 3.35862 0.959302 2.82634C2.66785 2.13156 5.32529 1.00777 6.81715 0.401459C7.69855 0.0168729 8.173 -0.190045 8.98658 0.238958C10.4377 0.889324 13.5835 2.22003 15.2378 2.95959C16.6754 3.63957 15.7126 3.86165 15.3056 4.1426ZM9.27145 8.14988C10.1122 7.7801 11.2513 7.15898 12.4986 6.58265V12.1663C12.4986 12.1663 10.8986 14 8.06447 14C5.0272 14 3.38613 12.1663 3.38613 12.1663V6.87804C4.34928 7.29223 5.42025 7.66165 6.72184 8.13471C7.5222 8.46044 8.53926 8.56372 9.27145 8.14988Z" fill="currentColor" />
</svg>
