<svg width="21" height="16" viewBox="0 0 21 16" fill="none" xmlns="http://www.w3.org/2000/svg">
<path d="M10.1053 0C9.88194 0 9.66775 0.0887216 9.50982 0.246647C9.3519 0.404572 9.26318 0.618765 9.26318 0.842105V2.52632H10.9474V0.842105C10.9474 0.618765 10.8587 0.404572 10.7007 0.246647C10.5428 0.0887216 10.3286 0 10.1053 0V0Z" fill="currentColor" />
<path d="M7.15788 1.6842H13.0526C14.951 1.6842 16.7716 2.43834 18.114 3.7807C19.4564 5.12307 20.2105 6.94371 20.2105 8.8421C20.2105 10.7405 19.4564 12.5611 18.114 13.9035C16.7716 15.2459 14.951 16 13.0526 16H7.15788C5.25949 16 3.43885 15.2459 2.09649 13.9035C0.75412 12.5611 -1.33514e-05 10.7405 -1.33514e-05 8.8421C-1.33514e-05 6.94371 0.75412 5.12307 2.09649 3.7807C3.43885 2.43834 5.25949 1.6842 7.15788 1.6842ZM12.6316 10.1053H13.4737V10.9474C13.4737 11.1707 13.5624 11.3849 13.7203 11.5428C13.8782 11.7007 14.0924 11.7895 14.3158 11.7895C14.5391 11.7895 14.7533 11.7007 14.9112 11.5428C15.0692 11.3849 15.1579 11.1707 15.1579 10.9474V10.1053H16C16.2233 10.1053 16.4375 10.0165 16.5954 9.85861C16.7534 9.70068 16.8421 9.48649 16.8421 9.26315C16.8421 9.03981 16.7534 8.82562 16.5954 8.66769C16.4375 8.50977 16.2233 8.42105 16 8.42105H15.1579V7.57894C15.1579 7.3556 15.0692 7.14141 14.9112 6.98348C14.7533 6.82556 14.5391 6.73684 14.3158 6.73684C14.0924 6.73684 13.8782 6.82556 13.7203 6.98348C13.5624 7.14141 13.4737 7.3556 13.4737 7.57894V8.42105H12.6316C12.4082 8.42105 12.194 8.50977 12.0361 8.66769C11.8782 8.82562 11.7895 9.03981 11.7895 9.26315C11.7895 9.48649 11.8782 9.70068 12.0361 9.85861C12.194 10.0165 12.4082 10.1053 12.6316 10.1053ZM5.89472 11.7895C6.39438 11.7895 6.88282 11.6413 7.29827 11.3637C7.71372 11.0861 8.03752 10.6916 8.22873 10.2299C8.41994 9.76831 8.46997 9.26035 8.37249 8.77029C8.27502 8.28023 8.03441 7.83009 7.6811 7.47678C7.32779 7.12346 6.87764 6.88286 6.38758 6.78538C5.89753 6.6879 5.38957 6.73793 4.92794 6.92914C4.46632 7.12035 4.07176 7.44415 3.79417 7.8596C3.51657 8.27506 3.36841 8.76349 3.36841 9.26315C3.36841 9.59491 3.43375 9.92342 3.56071 10.2299C3.68767 10.5364 3.87376 10.8149 4.10835 11.0495C4.34294 11.2841 4.62144 11.4702 4.92794 11.5972C5.23445 11.7241 5.56296 11.7895 5.89472 11.7895Z" fill="currentColor" />
<path d="M7.09052 9.26316C7.09052 9.59817 6.95743 9.91946 6.72054 10.1563C6.48366 10.3932 6.16237 10.5263 5.82736 10.5263C5.49235 10.5263 5.17106 10.3932 4.93417 10.1563C4.69728 9.91946 4.5642 9.59817 4.5642 9.26316C4.5642 8.92815 4.69728 8.60686 4.93417 8.36997C5.17106 8.13308 5.49235 8 5.82736 8C6.16237 8 6.48366 8.13308 6.72054 8.36997C6.95743 8.60686 7.09052 8.92815 7.09052 9.26316Z" fill="currentColor" />
</svg>
