<svg width="20" height="20" viewBox="0 0 20 20" fill="currentColor" xmlns="http://www.w3.org/2000/svg">
<path fill-rule="evenodd" clip-rule="evenodd" d="M9.51401 0.200983L0.201677 9.49978C-0.229843 9.93077 0.0764675 10.6722 0.691328 10.6722H1.70724C2.53567 10.6722 3.20724 11.3437 3.20724 12.1722V18.5708C3.20724 19.3591 3.84893 20 4.63819 20H5.63953C6.46796 20 7.13953 19.3284 7.13953 18.5V16.146C7.13953 15.3577 7.78122 14.7168 8.57048 14.7168H11.4324C12.2216 14.7168 12.8633 15.3577 12.8633 16.146V18.5C12.8633 19.3284 13.5349 20 14.3633 20H15.387C16.1763 20 16.818 19.3591 16.818 18.5708V12.1722C16.818 11.3437 17.4895 10.6722 18.318 10.6722H19.3115C19.9241 10.6722 20.2305 9.93301 19.7967 9.49978L10.4866 0.200983C10.2183 -0.0669942 9.78231 -0.0669942 9.51401 0.200983ZM7 10C6.44771 10 6 10.4477 6 11C6 11.5523 6.44771 12 7 12H13C13.5523 12 14 11.5523 14 11C14 10.4477 13.5523 10 13 10H7Z" fill="currentColor" />
</svg>
