<svg width="15" height="16" viewBox="0 0 15 16" fill="none" xmlns="http://www.w3.org/2000/svg">
<path fill-rule="evenodd" clip-rule="evenodd" d="M1 2C1 0.89543 1.89543 0 3 0H9C10.1046 0 11 0.895431 11 2V14H12V5C12 4.44772 12.4477 4 13 4C13.5523 4 14 4.44772 14 5V14C14.5523 14 15 14.4477 15 15C15 15.5523 14.5523 16 14 16L1 16C0.447715 16 0 15.5523 0 15C0 14.4477 0.447715 14 1 14V2ZM3 4C3 3.44772 3.44772 3 4 3H8C8.55228 3 9 3.44772 9 4C9 4.55228 8.55228 5 8 5H4C3.44772 5 3 4.55228 3 4ZM3 7C3 6.44772 3.44772 6 4 6H8C8.55228 6 9 6.44772 9 7C9 7.55228 8.55228 8 8 8H4C3.44772 8 3 7.55228 3 7ZM4 9C3.44772 9 3 9.44772 3 10C3 10.5523 3.44772 11 4 11H8C8.55228 11 9 10.5523 9 10C9 9.44772 8.55228 9 8 9H4Z" fill="currentColor" />
</svg>
