<svg width="16" height="17" viewBox="0 0 16 17" fill="none" xmlns="http://www.w3.org/2000/svg">
<path d="M4.96996 12.2564H5.43326V12.3828C5.39115 12.467 5.39115 12.5934 5.39115 12.6776V13.3515H4.96996C2.23227 13.3515 0.0421183 12.088 0.0421183 10.5717V9.47662C-7.84515e-09 10.9929 2.23227 12.2564 4.96996 12.2564ZM4.96996 10.319H5.43326V10.4453C5.39115 10.5296 5.39115 10.6559 5.39115 10.7402V11.4141H4.96996C2.23227 11.4141 0.0421183 10.1505 0.0421183 8.63426V7.53918C-7.84515e-09 9.05544 2.23227 10.319 4.96996 10.319ZM4.96996 6.40199C7.70765 6.40199 9.89781 5.13844 9.89781 3.62218V4.71725C9.89781 5.39115 9.47662 5.9808 8.80273 6.4441C8.12884 6.6547 7.49706 6.90741 6.99164 7.24435C6.35987 7.41283 5.64386 7.49706 4.92784 7.49706C2.19015 7.49706 0 6.23351 0 4.71725V3.62218C0 5.18055 2.23227 6.40199 4.96996 6.40199ZM4.96996 8.33943C5.30691 8.33943 5.64386 8.33943 5.93868 8.29731C5.68597 8.63426 5.5175 9.05544 5.43326 9.4345H4.96996C2.23227 9.4345 0.0421183 8.17095 0.0421183 6.6547V5.55962C-7.84515e-09 7.118 2.23227 8.33943 4.96996 8.33943ZM4.96996 0C7.70765 0 9.89781 1.26355 9.89781 2.77981C9.89781 4.29607 7.66553 5.55962 4.96996 5.55962C2.23227 5.55962 0.0421183 4.29607 0.0421183 2.77981C-7.84515e-09 1.26355 2.23227 0 4.96996 0ZM15.7944 16.005L15.5417 16.2577C15.289 16.4683 14.7414 16.4683 14.4887 16.2577L12.6355 14.6572C11.9616 15.0784 11.2035 15.3311 10.3611 15.3311C8.00248 15.3311 6.10716 13.4779 6.10716 11.1614C6.10716 8.84485 8.00248 6.99164 10.3611 6.99164C12.7197 6.99164 14.6151 8.84485 14.6151 11.1614C14.6151 12.0037 14.3623 12.7619 13.9412 13.3936L15.7944 14.9941C16.0892 15.2468 16.0471 15.7101 15.7944 16.005ZM10.3611 8.5079C8.88697 8.5079 7.66553 9.68721 7.66553 11.1614C7.66553 12.6355 8.88697 13.8148 10.3611 13.8148C11.8352 13.8148 13.0567 12.6355 13.0567 11.1614C13.0567 9.68721 11.8774 8.5079 10.3611 8.5079ZM12.2143 10.0663C12.2564 10.0242 12.3407 9.98204 12.3828 10.0242C12.4249 10.0663 12.467 10.1505 12.4249 10.1926L11.1192 12.4249C11.0771 12.467 10.9929 12.5091 10.9508 12.467C10.9086 12.4249 10.8665 12.3407 10.9086 12.2986L12.2143 10.0663ZM9.51874 9.51874C9.93993 9.51874 10.2769 9.68721 10.4875 9.98204C10.6981 10.2769 10.8244 10.6981 10.8244 11.2035C10.8244 11.7089 10.6981 12.1301 10.4875 12.4249C10.2348 12.7197 9.93993 12.8882 9.51874 12.8882C9.09756 12.8882 8.76061 12.7197 8.55002 12.4249C8.33943 12.1301 8.21307 11.7089 8.21307 11.2035C8.21307 10.6981 8.33943 10.2769 8.55002 9.98204C8.76061 9.68721 9.09756 9.51874 9.51874 9.51874ZM9.51874 9.98204C9.22391 9.98204 9.01332 10.1084 8.92909 10.4032C8.84485 10.6138 8.80273 10.8665 8.80273 11.2035C8.80273 11.5404 8.84485 11.7931 8.92909 12.0037C9.05544 12.2986 9.26603 12.4249 9.51874 12.4249C9.81357 12.4249 9.98204 12.2986 10.1084 12.0037C10.1926 11.7931 10.2348 11.5404 10.2348 11.2035C10.2348 10.8665 10.1926 10.6138 10.1084 10.4032C9.98204 10.1084 9.77145 9.98204 9.51874 9.98204ZM11.4562 10.2769C11.2035 10.2769 11.035 10.1084 11.035 9.85569C11.035 9.60298 11.2035 9.4345 11.4562 9.4345C11.7089 9.4345 11.8774 9.60298 11.8774 9.85569C11.8774 10.1084 11.7089 10.2769 11.4562 10.2769ZM11.9195 12.7619C11.6668 12.7619 11.4983 12.5934 11.4983 12.3407C11.4983 12.088 11.6668 11.9195 11.9195 11.9195C12.1722 11.9195 12.3407 12.088 12.3407 12.3407C12.3407 12.5934 12.1722 12.7619 11.9195 12.7619Z" fill="currentColor" />
</svg>
