<svg width="16" height="16" viewBox="0 0 16 16" fill="none" xmlns="http://www.w3.org/2000/svg">
<path d="M10.3651 10.511C10.3651 10.511 9.93653 11.0348 9.29349 10.511C8.65046 9.98719 6.43642 7.52249 6.43642 7.52249C6.43642 7.52249 5.91262 6.89126 5.31721 7.52249C4.7218 8.15371 2.8887 10.8679 2.8887 10.8679C2.8887 10.8679 2.31728 11.8443 1.48378 10.8679C0.766459 10.0268 0.155806 10.3872 0 10.503V14.1879C0 14.8191 0.511607 15.3307 1.14283 15.3307H14.8568C15.488 15.3307 15.9996 14.8191 15.9996 14.1879V4.11914C15.9562 4.12714 15.9109 4.14466 15.8648 4.16828L10.3651 10.511ZM1.99195 9.13007C2.72831 9.13007 3.32525 8.53313 3.32525 7.79677C3.32525 7.60782 3.28488 7.42878 3.21402 7.26612L5.55149 4.37933C5.68329 4.42313 5.82157 4.45247 5.96824 4.45247C6.16823 4.45247 6.35642 4.40523 6.52632 4.32638L8.57084 6.3709C8.52741 6.50232 8.49846 6.64023 8.49846 6.78575C8.49846 7.52211 9.09502 8.11905 9.83177 8.11905C10.5681 8.11905 11.1651 7.52211 11.1651 6.78575C11.1651 6.62156 11.1312 6.46613 11.0771 6.321L14.2625 2.59766C14.3905 2.63842 14.5246 2.6666 14.6667 2.6666C15.4031 2.6666 16 2.06967 16 1.3333C16 0.596939 15.4031 0 14.6667 0C13.93 0 13.3334 0.596939 13.3334 1.3333C13.3334 1.50434 13.3684 1.66625 13.4271 1.81634L10.2523 5.52673C10.1194 5.48216 9.97957 5.45244 9.83176 5.45244C9.66491 5.45244 9.50644 5.48673 9.35939 5.54273L7.25811 3.44144C7.28401 3.33783 7.30192 3.23078 7.30192 3.11916C7.30192 2.3828 6.70498 1.78586 5.96862 1.78586C5.23225 1.78586 4.63531 2.3828 4.63531 3.11916C4.63531 3.28411 4.66922 3.43992 4.72369 3.58582L2.34927 6.51794C2.23499 6.48594 2.11689 6.46347 1.99194 6.46347C1.25558 6.46347 0.658642 7.06041 0.658642 7.79677C0.658642 8.53313 1.25559 9.13007 1.99195 9.13007Z" fill="currentColor" />
</svg>
