<svg width="15" height="17" viewBox="0 0 15 17" fill="none" xmlns="http://www.w3.org/2000/svg">
<path fill-rule="evenodd" clip-rule="evenodd" d="M6.47299 0.275951C6.85922 -0.0919838 7.46625 -0.0919838 7.85248 0.275951L14.0132 6.14483C14.6668 6.76743 14.2261 7.86888 13.3235 7.86888H12.1627V15.6189C12.1627 16.1712 11.715 16.6189 11.1627 16.6189H3.16274C2.61045 16.6189 2.16274 16.1712 2.16274 15.6189V7.86888H1.00201C0.0993655 7.86888 -0.341298 6.76743 0.312263 6.14483L6.47299 0.275951ZM5.43 6.4789H4.11L6.06 9.9889H4.74V10.6089H6.41L6.42 10.6189V11.4789H4.74V12.0989H6.42V13.6189H7.58V12.0989H9.27V11.4789H7.58V10.6189L7.59 10.6089H9.27V9.9889H7.94L9.89 6.4789H8.57L7 9.5489L5.43 6.4789Z" fill="currentColor" />
</svg>
