<svg width="16" height="14" viewBox="0 0 16 14" fill="none" xmlns="http://www.w3.org/2000/svg">
<path d="M1.00654 11.1288H14.9937C15.1254 11.1277 15.2551 11.0967 15.3737 11.0382C15.4922 10.9797 15.5966 10.8951 15.6793 10.7906C15.8602 10.5914 15.9726 10.3375 15.9993 10.0673C16.0047 9.92798 15.9787 9.78924 15.9232 9.66181C15.8677 9.53439 15.7843 9.42168 15.6793 9.3324C15.5946 9.23017 15.4898 9.14723 15.3717 9.08895C15.2536 9.03068 15.1248 8.99837 14.9937 8.99411H14.8566C14.6807 7.4352 14.1226 5.94671 13.2339 4.66633C12.3693 3.61119 11.2275 2.83009 9.94277 2.41495V2.13499C9.94601 1.5804 9.7556 1.04277 9.40569 0.618514C9.22632 0.421455 9.0087 0.264707 8.76669 0.15826C8.52469 0.0518126 8.26362 -0.00199745 8.00012 0.000259454C7.7363 -0.00418968 7.47457 0.048627 7.23225 0.155212C6.98994 0.261796 6.77257 0.419717 6.59454 0.618514C6.40281 0.818522 6.25242 1.05583 6.1523 1.31634C6.05218 1.57685 6.00439 1.85525 6.01175 2.13499V2.41495C4.71414 2.80927 3.5632 3.59389 2.70922 4.66633C1.81711 5.94702 1.25157 7.4344 1.06368 8.99411H1.00654C0.877876 9.00584 0.753176 9.04562 0.640863 9.11077C0.521828 9.16405 0.413377 9.23917 0.320896 9.3324C0.232862 9.43384 0.159725 9.5478 0.103775 9.67069C0.103775 9.78735 0.103775 9.95066 0.000928427 10.114C-0.00535185 10.2534 0.0202966 10.3925 0.0758382 10.52C0.13138 10.6476 0.215285 10.7602 0.320896 10.8489C0.404736 10.9483 0.510825 11.0257 0.630176 11.0745C0.749528 11.1232 0.878628 11.1418 1.00654 11.1288ZM8.00012 0.898479C8.31303 0.901921 8.61386 1.02227 8.84574 1.23677C8.96132 1.34317 9.05438 1.47255 9.11922 1.61698C9.18407 1.76141 9.21933 1.91783 9.22285 2.07666V2.13499C9.00789 2.14788 8.79224 2.12822 8.58291 2.07666H7.44017C7.25 2.1266 7.05342 2.14627 6.85737 2.13499V2.07666C6.85156 1.91632 6.88264 1.75682 6.94813 1.61096C7.01362 1.4651 7.11169 1.33694 7.23448 1.23677C7.43881 1.02954 7.71226 0.908714 8.00012 0.898479ZM3.66913 6.46277C4.00259 5.95075 4.41558 5.49765 4.89186 5.12127C5.37728 4.73775 5.93887 4.46704 6.53741 4.32804H6.69739C6.76894 4.32742 6.83975 4.34276 6.90489 4.37298C6.97002 4.40321 7.02791 4.44759 7.07449 4.50302C7.16706 4.58678 7.22438 4.70379 7.23448 4.82964C7.26062 4.90512 7.26062 4.98747 7.23448 5.06295L7.07449 5.22626C7.07449 5.22626 6.97165 5.22626 6.85737 5.34291C6.54158 5.43662 6.23836 5.56983 5.95461 5.73953C5.68341 5.89112 5.43355 6.07948 5.21183 6.29946C4.97192 6.50586 4.75708 6.74083 4.57189 6.99937C4.57189 7.05769 4.57189 7.11602 4.46905 7.17435C4.3662 7.23267 4.35477 7.17435 4.30906 7.291C4.26335 7.40765 4.14908 7.17435 4.09194 7.17435C4.0218 7.17663 3.95212 7.16197 3.88857 7.13157C3.82503 7.10116 3.76942 7.05587 3.72626 6.99937C3.67696 6.95838 3.63708 6.90683 3.60943 6.84838C3.58179 6.78992 3.56706 6.72598 3.56628 6.66108C3.56628 6.66108 3.56628 6.49777 3.66913 6.43944V6.46277ZM14.9366 11.9804H1.00654C0.752557 11.9871 0.509314 12.0864 0.320896 12.2604C0.140005 12.4595 0.0276692 12.7134 0.000928427 12.9836C-0.00361532 13.1228 0.0228161 13.2613 0.0782358 13.3886C0.133655 13.5159 0.216621 13.6287 0.320896 13.7185C0.408007 13.8137 0.514609 13.8882 0.633117 13.9366C0.751624 13.985 0.879123 14.0061 1.00654 13.9985H14.9937C15.2463 13.9852 15.4874 13.8867 15.6793 13.7185C15.8604 13.5149 15.9725 13.2572 15.9993 12.9836C16.0047 12.846 15.9786 12.7089 15.923 12.5834C15.8675 12.4579 15.784 12.3473 15.6793 12.2604C15.4723 12.0797 15.2089 11.9804 14.9366 11.9804Z" fill="currentColor" />
</svg>
