<svg width="20" height="20" viewBox="0 0 20 20" fill="none" xmlns="http://www.w3.org/2000/svg">
<path fill-rule="evenodd" clip-rule="evenodd" d="M1.82843 7.17157C0.266336 8.73366 0.266336 11.2663 1.82843 12.8284L7.48529 18.4853C9.04738 20.0474 11.58 20.0474 13.1421 18.4853L18.799 12.8284C20.3611 11.2663 20.3611 8.73366 18.799 7.17157L13.1421 1.51471C11.58 -0.0473846 9.04738 -0.0473846 7.48529 1.51471L1.82843 7.17157ZM10 14C9.44772 14 9.00001 13.5523 9.00001 13V11H7.00001C6.44772 11 6.00001 10.5523 6.00001 9.99999C6.00001 9.44771 6.44772 8.99999 7.00001 8.99999H9.00001V6.99999C9.00001 6.44771 9.44772 5.99999 10 5.99999C10.5523 5.99999 11 6.44771 11 6.99999V8.99999H13C13.5523 8.99999 14 9.44771 14 9.99999C14 10.5523 13.5523 11 13 11H11V13C11 13.5523 10.5523 14 10 14Z" fill="currentColor" />
</svg>
