<svg width="16" height="18" viewBox="0 0 16 18" fill="none" xmlns="http://www.w3.org/2000/svg">
<path d="M4.30281 4.30273H3.08186V3.08165C3.08186 2.73919 2.80406 2.46147 2.46159 2.46147C2.11896 2.46147 1.8413 2.73917 1.8413 3.08165V4.30273H0.620206C0.277702 4.30273 0 4.58056 0 4.92294C0 5.26561 0.277702 5.54333 0.620206 5.54333H1.8413V6.76439C1.8413 7.10687 2.11899 7.38459 2.46159 7.38459C2.80406 7.38459 3.08186 7.10689 3.08186 6.76439V5.54333H4.30281C4.64544 5.54333 4.92312 5.26561 4.92312 4.92294C4.9231 4.58056 4.64544 4.30273 4.30281 4.30273ZM7.60816 1.76924H6.84618V1.00726C6.84618 0.793539 6.67287 0.620185 6.45911 0.620185C6.24533 0.620185 6.07208 0.793539 6.07208 1.00726V1.76924H5.31017C5.0964 1.76924 4.92308 1.94249 4.92308 2.15621C4.92308 2.37001 5.09637 2.54328 5.31017 2.54328H6.07208V3.30525C6.07208 3.51898 6.24533 3.69223 6.45911 3.69223C6.67284 3.69223 6.84618 3.51898 6.84618 3.30525V2.54328H7.60816C7.8219 2.54328 7.99515 2.37003 7.99515 2.15621C7.99513 1.94249 7.8219 1.76924 7.60816 1.76924ZM4.69114 0.68869H4.23441V0.232004C4.23441 0.103804 4.13065 0 4.00247 0C3.87436 0 3.77047 0.103804 3.77047 0.232004V0.688689H3.31378C3.18567 0.688689 3.08178 0.792493 3.08178 0.920694C3.08178 1.04869 3.18567 1.15259 3.31378 1.15259H3.77047V1.60928C3.77047 1.73746 3.87436 1.84128 4.00247 1.84128C4.13063 1.84128 4.23441 1.73748 4.23441 1.60928V1.15259H4.69114C4.81911 1.15259 4.9231 1.04869 4.9231 0.920694C4.9231 0.792493 4.81924 0.688606 4.69114 0.68869ZM15.7754 12.1317C15.2928 10.3299 14.2586 8.93765 12.6427 7.99226C12.503 7.91056 12.3579 7.83889 12.2129 7.76639C11.5318 7.59287 10.6311 7.43809 9.58432 7.43809C8.53698 7.43809 7.6358 7.59306 6.95459 7.7667C4.42089 8.9474 3.37047 10.7461 3.18728 13.3735C3.1398 14.0559 3.17928 14.7323 3.35155 15.4007C3.62044 16.4548 4.54792 17.244 5.66147 17.2421C8.28384 17.236 10.9082 17.2421 13.5307 17.2381C14.3733 17.236 15.0219 16.8583 15.4926 16.17C15.7319 15.82 15.8445 15.4225 15.9079 15.0052C16.0603 14.0401 16.0285 13.0789 15.7754 12.1317ZM11.3513 14.584H10.2872C10.2734 14.584 10.2635 14.5958 10.2635 14.6077V15.1179H10.2576C10.2655 15.1594 10.2715 15.2029 10.2715 15.2465C10.2715 15.6124 9.96888 15.9109 9.59704 15.9109C9.22527 15.9109 8.92263 15.6144 8.92263 15.2465C8.92263 15.2009 8.92863 15.1594 8.9366 15.1179H8.92263V14.6076C8.92263 14.5939 8.91087 14.584 8.89896 14.584H7.84486H7.84285C7.54619 14.584 7.30288 14.3466 7.30288 14.052C7.30288 13.7572 7.54428 13.5199 7.84285 13.5199H7.84486H8.8989C8.91275 13.5199 8.92265 13.5081 8.92265 13.4962V13.0155C8.92265 13.0017 8.91089 12.9919 8.8989 12.9919H7.84486V12.99H7.84285C7.54619 12.99 7.30288 12.7525 7.30288 12.458C7.30288 12.1651 7.54428 11.9259 7.84285 11.9259H7.84486H8.80993C8.81997 11.9259 8.82983 11.9201 8.83175 11.9102C8.83968 11.8883 8.84954 11.8686 8.86138 11.8488C8.86734 11.8389 8.86531 11.8271 8.85749 11.8191L7.66292 10.6423C7.5126 10.4961 7.56205 10.2072 7.77166 10.0016C7.9813 9.79591 8.27411 9.74644 8.4224 9.89481L9.58721 11.0438C9.59706 11.0537 9.61295 11.0537 9.6228 11.0438L10.7006 9.9126C10.8708 9.72865 11.2169 9.77419 11.4285 9.98378C11.6381 10.1935 11.7429 10.3833 11.5352 10.6147L10.2695 11.8904C10.2636 11.8962 10.2617 11.9021 10.2617 11.9101C10.2636 11.9219 10.2734 11.9318 10.2854 11.9318H11.3474V11.9337C11.644 11.9357 11.8833 12.173 11.8833 12.4659C11.8833 12.7585 11.644 12.9958 11.3474 12.9958H10.2872C10.2734 12.9958 10.2635 13.0077 10.2635 13.0195V13.5001C10.2635 13.514 10.2754 13.5239 10.2872 13.5239H11.3513V13.5258C11.6479 13.5278 11.8871 13.7652 11.8871 14.0578C11.8871 14.3466 11.6479 14.582 11.3513 14.584ZM6.55276 7.07751C7.26367 6.86457 8.32039 6.63612 9.58432 6.63612C10.845 6.63612 11.8995 6.86331 12.6102 7.0759C12.7377 6.88895 12.843 6.68749 12.9217 6.46946C12.9929 6.27163 13.0324 6.06394 13.0878 5.86026C13.2143 5.38768 13.0917 4.98023 12.7259 4.66781C12.2314 4.24659 11.6678 4.19702 11.0744 4.44424C11.0329 4.46202 11.0052 4.47399 10.9657 4.43438C10.2023 3.71251 8.97606 3.70456 8.20673 4.41861C8.17114 4.45217 8.14551 4.46012 8.09797 4.43832C7.78549 4.29394 7.45923 4.26438 7.12499 4.33345C6.49003 4.46403 5.96603 5.00395 6.05894 5.74163C6.12171 6.23756 6.28452 6.68128 6.55276 7.07751Z" fill="currentColor" />
</svg>
