<svg width="12" height="14" viewBox="0 0 12 14" fill="none" xmlns="http://www.w3.org/2000/svg">
<path d="M11.9991 3.02764V12.6584C11.9991 13.3993 11.3928 14 10.6449 14H1.3542C1.17641 14 1.00036 13.9653 0.836105 13.8979C0.671855 13.8304 0.522626 13.7316 0.396946 13.607C0.271266 13.4824 0.171599 13.3345 0.103639 13.1718C0.0356791 13.009 0.000758716 12.8346 0.0008735 12.6584V3.02764L5.60291 5.11357C5.8589 5.20878 6.14023 5.20878 6.39621 5.11357L12 3.02764H11.9991ZM7.48831 6.47765C7.43044 6.48806 7.37695 6.51515 7.33455 6.55555C7.27112 6.61695 7.21671 6.68688 7.17292 6.76328L6.00481 8.72631L4.80437 6.73991C4.71001 6.58411 4.61128 6.49756 4.50906 6.48198C4.40597 6.4664 4.29414 6.49929 4.17357 6.58325C4.07688 6.64386 4.00743 6.73901 3.97961 6.84896C3.95602 6.95283 3.9866 7.074 4.07048 7.20903L5.03327 8.76525H4.41034C4.12552 8.76525 3.98398 8.91153 3.98398 9.20321C3.98398 9.45422 4.09669 9.5953 4.3221 9.62733L4.42606 9.63338H5.52253V10.0315H4.41034C4.12552 10.0315 3.98398 10.1787 3.98398 10.4704C3.98398 10.7214 4.09669 10.8616 4.3221 10.8936L4.42606 10.8997H5.52253V11.8076C5.52253 12.0101 5.5601 12.146 5.63349 12.2144C5.70688 12.2819 5.82832 12.3157 5.99694 12.3157C6.1909 12.3157 6.31758 12.2811 6.37525 12.2135C6.42155 12.1599 6.44951 12.0621 6.45912 11.921L6.46261 11.8076V10.8997H7.57568C7.87011 10.8997 8.01689 10.7568 8.01689 10.4704C8.01689 10.2142 7.90419 10.0705 7.67878 10.0393L7.57568 10.0324H6.46261V9.63338H7.57568C7.87011 9.63338 8.01689 9.48971 8.01689 9.20321C8.01689 8.94788 7.90419 8.8042 7.67878 8.77218L7.57568 8.76525H6.9676L7.91467 7.20903C7.99854 7.06275 8.03611 6.94417 8.02563 6.85329C8.01427 6.76241 7.9435 6.67499 7.81245 6.59104C7.75936 6.55713 7.70389 6.52705 7.64645 6.50102C7.59745 6.47822 7.54279 6.47009 7.48919 6.47765H7.48831ZM10.6458 0.00173112C11.3928 0.00173112 11.9991 0.601546 11.9991 1.34244V2.11104L6.41893 4.19697C6.16345 4.29277 5.88154 4.29339 5.62563 4.1987L0 2.11017V1.34158C0 0.60068 0.606334 1.77502e-08 1.3542 0H10.6458V0.00173112Z" fill="currentColor" />
</svg>
