<svg width="16" height="13" viewBox="0 0 16 13" fill="none" xmlns="http://www.w3.org/2000/svg">
<path d="M16 3.224H0V2.12533C0 0.951619 0.895238 0 2 0H14C15.1048 0 16 0.951619 16 2.12571V3.224ZM16 4.66286V10.8267C16 12.0008 15.1048 12.9524 14 12.9524H2C0.895238 12.9524 0 12.0008 0 10.8267V4.66286H16ZM2.41448 6.04457C1.77867 6.04457 1.26324 6.56 1.26324 7.19581C1.26324 7.83162 1.77866 8.34705 2.41448 8.34705H5.16495C5.80076 8.34705 6.31619 7.83162 6.31619 7.19581C6.31619 6.56 5.80076 6.04457 5.16495 6.04457H2.41448ZM14.6594 6.93829C14.8141 6.49562 14.6865 6.27467 14.277 6.27467H13.5695L12.5124 8.17181L12.3939 8.50095H12.3798L12.331 8.15657C12.1886 7.72229 12.0568 7.28419 11.9349 6.84229C11.8312 6.46362 11.6019 6.27467 11.2465 6.27467H10.2522L11.1204 8.53867H10.4053C10.3013 9.17638 10.4229 9.49524 10.7699 9.49524H11.491L11.568 9.70133L11.5398 9.94629L10.2362 9.94743C10.037 10.6149 10.2042 10.9486 10.7383 10.9486H11.4069C11.397 11.0545 11.3855 11.1642 11.3703 11.2796C11.3139 11.7288 11.7962 11.7288 12.0164 11.7288H12.6244L12.7223 10.9486H13.9398C14.0655 10.2811 13.9425 9.94743 13.5695 9.94743C13.1962 9.94743 12.9562 9.94743 12.8484 9.94629L12.8834 9.6941L13.0164 9.49524H14.1288C14.2453 8.86133 14.1387 8.53981 13.8084 8.53143C13.7497 8.53001 13.691 8.53001 13.6324 8.53143L14.6594 6.93829Z" fill="currentColor" />
</svg>
