<svg width="16" height="15" viewBox="0 0 16 15" fill="none" xmlns="http://www.w3.org/2000/svg">
<path fill-rule="evenodd" clip-rule="evenodd" d="M8.6596 0.314629L11.8906 5.49798H15.2656C15.7065 5.49798 16 5.81142 16 6.28252V6.51843L14.1647 13.8219C14.0184 14.5289 13.4313 15 12.7712 15H3.22884C2.56862 15 1.98165 14.4512 1.83429 13.8219L0 6.51843V6.28252C0 5.81142 0.292452 5.49798 0.733314 5.49798H4.25565L7.48655 0.314629C7.63279 0.0787599 7.85325 0 8.07363 0C8.29299 0 8.51336 0.156972 8.6596 0.314629ZM7.23023 3.36531L5.87162 5.49798H10.2757L8.91703 3.3653C8.524 2.74836 7.62326 2.74836 7.23023 3.36531ZM4 11.5C4 11.7761 4.22386 12 4.5 12C4.77614 12 5 11.7761 5 11.5V8.5C5 8.22386 4.77614 8 4.5 8C4.22386 8 4 8.22386 4 8.5L4 11.5ZM8 12C7.72386 12 7.5 11.7761 7.5 11.5V8.5C7.5 8.22386 7.72386 8 8 8C8.27614 8 8.5 8.22386 8.5 8.5V11.5C8.5 11.7761 8.27614 12 8 12ZM11 11.5C11 11.7761 11.2239 12 11.5 12C11.7761 12 12 11.7761 12 11.5V8.5C12 8.22386 11.7761 8 11.5 8C11.2239 8 11 8.22386 11 8.5V11.5Z" fill="currentColor" />
</svg>
