<svg width="18" height="15" viewBox="0 0 18 15" fill="none" xmlns="http://www.w3.org/2000/svg">
<path d="M6.3007 12.1325C5.74866 11.9907 5.31765 11.884 4.90709 11.6939C4.48754 11.7056 1.91377 14.3113 1.6357 14.1557C1.35109 13.9569 2.30061 10.5435 1.6357 10.2322C0.571298 8.96833 -0.00295432 7.42878 1.143e-05 5.84696C1.143e-05 2.70495 3.11274 1.71298e-08 7.36063 0C8.49498 0 9.59499 0.296003 10.5584 0.80542C11.3004 0.789275 12.0414 0.863782 12.7609 1.02687C13.1338 1.11165 13.4086 1.1979 13.5648 1.25783C16.1983 2.20284 18 4.61764 18 7.30871C18 9.05256 17.3007 10.6524 16.0388 11.8766C16.0511 11.9278 16.0715 11.9965 16.0985 12.0798C16.1329 12.1836 16.1778 12.3064 16.2384 12.4672L16.4166 12.9276L16.4657 13.0563C16.9343 14.2863 17.0349 14.6671 16.6236 14.9076C16.5156 14.9967 16.3856 15.0106 16.2498 14.9938C16.1834 14.9842 16.1184 14.968 16.056 14.9456C15.9211 14.8976 15.7893 14.8432 15.661 14.7826C15.495 14.706 15.3304 14.6273 15.167 14.5465L14.6076 14.2688L14.5348 14.2337C14.0752 14.0071 13.7717 13.8632 13.5264 13.7616C13.4251 13.7174 13.3207 13.6791 13.214 13.6468C13.2303 13.6475 13.2467 13.6446 13.2745 13.6307L13.1943 13.6439C12.2922 13.7857 11.7377 13.8617 11.207 13.907C9.31201 13.8632 7.59535 13.2127 6.3007 12.1325ZM11.741 1.5933C13.0488 2.67426 13.9034 4.20104 13.9034 5.84696C13.9034 9.17243 11.1456 11.7641 7.96011 12.3408C8.93442 12.8632 10.0433 13.1517 11.1792 13.1783C11.6183 13.1381 12.1377 13.0672 12.9727 12.9371C13.2728 12.791 13.5828 12.9291 14.9306 13.5942L15.0042 13.6307L15.5604 13.9055C15.7256 13.9867 15.8581 14.0503 15.9701 14.1029C15.8904 13.829 15.7976 13.5584 15.692 13.2916L15.643 13.1652V13.1666L15.4647 12.7018C15.4001 12.5337 15.3526 12.4021 15.315 12.2874C15.1678 11.8423 15.1392 11.6779 15.3289 11.4842C16.5246 10.3718 17.1822 8.91297 17.1822 7.30871C17.1822 4.91437 15.5808 2.76927 13.2499 1.93242C13.0257 1.85144 12.7949 1.78548 12.5597 1.73509C12.2903 1.6743 12.0164 1.62648 11.741 1.5933ZM3.68032 7.30871C4.00568 7.30871 4.31772 7.1932 4.54778 6.98761C4.77784 6.78201 4.90709 6.50316 4.90709 6.2124C4.90709 5.92164 4.77784 5.64279 4.54778 5.4372C4.31772 5.2316 4.00568 5.11609 3.68032 5.11609C3.35496 5.11609 3.04293 5.2316 2.81286 5.4372C2.5828 5.64279 2.45355 5.92164 2.45355 6.2124C2.45355 6.50316 2.5828 6.78201 2.81286 6.98761C3.04293 7.1932 3.35496 7.30871 3.68032 7.30871ZM6.95171 7.30871C7.27707 7.30871 7.5891 7.1932 7.81917 6.98761C8.04923 6.78201 8.17848 6.50316 8.17848 6.2124C8.17848 5.92164 8.04923 5.64279 7.81917 5.4372C7.5891 5.2316 7.27707 5.11609 6.95171 5.11609C6.62635 5.11609 6.31431 5.2316 6.08425 5.4372C5.85419 5.64279 5.72494 5.92164 5.72494 6.2124C5.72494 6.50316 5.85419 6.78201 6.08425 6.98761C6.31431 7.1932 6.62635 7.30871 6.95171 7.30871ZM10.2231 7.30871C10.5485 7.30871 10.8605 7.1932 11.0906 6.98761C11.3206 6.78201 11.4499 6.50316 11.4499 6.2124C11.4499 5.92164 11.3206 5.64279 11.0906 5.4372C10.8605 5.2316 10.5485 5.11609 10.2231 5.11609C9.89774 5.11609 9.5857 5.2316 9.35564 5.4372C9.12557 5.64279 8.99632 5.92164 8.99632 6.2124C8.99632 6.50316 9.12557 6.78201 9.35564 6.98761C9.5857 7.1932 9.89774 7.30871 10.2231 7.30871Z" fill="currentColor" />
</svg>
