<svg width="18" height="20" viewBox="0 0 18 20" fill="none" xmlns="http://www.w3.org/2000/svg">
<path fill-rule="evenodd" clip-rule="evenodd" d="M0 2C0 0.895431 0.895431 0 2 0H16C17.1046 0 18 0.895431 18 2V18C18 19.1046 17.1046 20 16 20H2C0.89543 20 0 19.1046 0 18V2ZM3 7C3 6.44772 3.44772 6 4 6H8C8.55228 6 9 6.44772 9 7C9 7.55228 8.55228 8 8 8H4C3.44772 8 3 7.55228 3 7ZM4 10C3.44772 10 3 10.4477 3 11C3 11.5523 3.44772 12 4 12H10C10.5523 12 11 11.5523 11 11C11 10.4477 10.5523 10 10 10H4Z" fill="currentColor" />
</svg>
