<svg width="14" height="18" viewBox="0 0 14 18" fill="none" xmlns="http://www.w3.org/2000/svg">
<path fill-rule="evenodd" clip-rule="evenodd" d="M3 0C2.44772 0 2 0.447715 2 1V6.58579C2 6.851 1.89464 7.10536 1.70711 7.29289L0.292893 8.70711C0.105357 8.89464 0 9.149 0 9.41421V17C0 17.5523 0.447715 18 1 18H5C5.55228 18 6 17.5523 6 17V9.41421C6 9.149 5.89464 8.89464 5.70711 8.70711L4.29289 7.29289C4.10536 7.10536 4 6.851 4 6.58579V1C4 0.447715 3.55228 0 3 0ZM3 2C2.72386 2 2.5 2.22386 2.5 2.5C2.5 2.77614 2.72386 3 3 3C3.27614 3 3.5 2.77614 3.5 2.5C3.5 2.22386 3.27614 2 3 2ZM8 8C8 7.44772 8.44772 7 9 7H13C13.5523 7 14 7.44772 14 8V10C14 11.4865 12.9189 12.7205 11.5 12.9585V17H13.5C13.7761 17 14 17.2239 14 17.5C14 17.7761 13.7761 18 13.5 18H8.5C8.22386 18 8 17.7761 8 17.5C8 17.2239 8.22386 17 8.5 17H10.5V12.9585C9.08114 12.7205 8 11.4865 8 10V8ZM9.5 8C9.22386 8 9 8.22386 9 8.5C9 8.77614 9.22386 9 9.5 9H12.5C12.7761 9 13 8.77614 13 8.5C13 8.22386 12.7761 8 12.5 8H9.5Z" fill="currentColor" />
</svg>
