<svg width="14" height="16" viewBox="0 0 14 16" fill="none" xmlns="http://www.w3.org/2000/svg">
<path d="M12.0808 0H1.9176C0.7668 0 0 1.00632 0 2.21389V11.472C0 12.6796 0.7668 13.6859 1.9176 13.6859H12.0824C13.2332 13.6859 14 12.6796 14 11.472V2.21389C13.9984 1.00632 13.232 0 12.0808 0ZM3.624 12.2653C3.34803 12.2657 3.08319 12.1508 2.88772 11.9457C2.69224 11.7407 2.58213 11.4623 2.5816 11.1718C2.58186 11.028 2.60904 10.8857 2.66158 10.753C2.71411 10.6203 2.79098 10.4997 2.88779 10.3983C2.98459 10.2969 3.09944 10.2165 3.22576 10.1618C3.35209 10.1071 3.48741 10.0792 3.624 10.0796C3.89972 10.0791 4.16434 10.1939 4.35972 10.3987C4.5551 10.6035 4.66526 10.8816 4.666 11.1718C4.66589 11.3157 4.63885 11.4581 4.58641 11.591C4.53398 11.7238 4.45718 11.8445 4.3604 11.9461C4.26363 12.0477 4.14878 12.1282 4.02242 12.183C3.89606 12.2379 3.76068 12.266 3.624 12.2657V12.2653ZM10.2644 12.2653C9.98843 12.2657 9.72359 12.1508 9.52811 11.9457C9.33264 11.7407 9.22253 11.4623 9.222 11.1718C9.22226 11.028 9.24944 10.8857 9.30198 10.753C9.35451 10.6203 9.43138 10.4997 9.52819 10.3983C9.62499 10.2969 9.73984 10.2165 9.86616 10.1618C9.99249 10.1071 10.1278 10.0792 10.2644 10.0796C10.5402 10.079 10.8049 10.1937 11.0004 10.3986C11.1958 10.6034 11.3061 10.8815 11.3068 11.1718C11.3066 11.3157 11.2795 11.4581 11.227 11.5909C11.1745 11.7238 11.0976 11.8444 11.0008 11.946C10.904 12.0476 10.7892 12.1281 10.6628 12.1829C10.5365 12.2378 10.4011 12.2659 10.2644 12.2657V12.2653ZM12.0808 7.64842C12.0808 7.99368 11.8336 8.45305 11.506 8.45305H2.4924C2.1632 8.45305 1.9176 7.992 1.9176 7.64842V3.22021C1.9176 2.87495 2.1648 2.416 2.4924 2.416H11.506C11.8352 2.416 12.0808 2.87495 12.0808 3.22021V7.64842ZM3.8352 14.6922C3.8352 15.4421 3.3512 16 2.6368 16C2.46713 16.0003 2.29907 15.9654 2.14222 15.8973C1.98537 15.8292 1.84279 15.7292 1.72263 15.6032C1.60247 15.4771 1.50708 15.3273 1.44191 15.1624C1.37674 14.9975 1.34306 14.8207 1.3428 14.6421V14.0893H3.8352V14.6922ZM12.4648 14.6922C12.4648 15.4421 11.9808 16 11.2664 16C11.0967 16.0003 10.9287 15.9654 10.7718 15.8973C10.615 15.8292 10.4724 15.7292 10.3522 15.6032C10.2321 15.4771 10.1367 15.3273 10.0715 15.1624C10.0063 14.9975 9.97266 14.8207 9.9724 14.6421V14.0893H12.4648V14.6922Z" fill="currentColor" />
</svg>
